<?xml version="1.0" encoding="utf-8"?>
<!-- Generator: Adobe Illustrator 22.1.0, SVG Export Plug-In . SVG Version: 6.00 Build 0)  -->
<svg version="1.1" id="Layer_1" xmlns="http://www.w3.org/2000/svg" xmlns:xlink="http://www.w3.org/1999/xlink" x="0px" y="0px"
	 viewBox="0 0 612 792" style="enable-background:new 0 0 612 792;" xml:space="preserve">
<style type="text/css">
	.st0{fill:#C6D9DC;stroke:#979797;stroke-miterlimit:10;}
	.st1{fill:#C5DADD;stroke:#979797;stroke-miterlimit:10;}
	.st2{fill-rule:evenodd;clip-rule:evenodd;fill:#C6D9DC;stroke:#979797;stroke-miterlimit:10;}
	.st3{fill-rule:evenodd;clip-rule:evenodd;fill:#C5DADD;}
</style>
<g>
	<path class="st0" d="M327.4,448.1c2.1-11.9,6.4-23.1,10.8-34.3c1.2-3.2,2.5-6.3,3.7-9.6c-4.4,2.9-8.1,6.5-11.6,10.4
		c-3.6,3.9-7.1,8-10.2,12.3c-3.1,4.3-5.9,8.8-8.3,13.5c-2.3,4.6-3.9,9.7-5.9,14.8c-1.4-5.6-3-11.2-4.2-16.8
		c-3.2-15.4-2.8-30.8-0.5-46.2c4.3-28.7,13.3-55.9,26-82c0.9-1.9,1.8-2.1,3.7-1.5c10.3,3.4,18.6,9.7,25.8,17.7
		c9.9,10.9,16.9,23.6,21.6,37.5c0.2,0.6,0.4,1.3,0.6,1.9c1.2-3,1.9-5.9,2.3-9c1.3-11.5-1.2-22.5-4.8-33.3c-1.6-4.6-3.6-9.1-5.4-13.7
		c2.9-0.4,5.7,0.1,8.4,0.9c9.6,3,16.8,9.3,22.5,17.4c0.4,0.6,0.8,1.2,1.4,1.7c0-10.4-1.9-20.4-5.9-30.3c7.5,0.4,14.4,2.3,20.8,5.3
		c6.4,3,12.4,6.6,18.6,9.9c-0.2-0.7-0.4-1.8-0.8-2.8c-4-11-10.9-20-19.3-28c-9.7-9.1-20.7-16.2-32.9-21.6c-0.4-0.2-0.8-0.4-1.2-0.6
		c1.2-3.1,3.4-5.3,6.1-7.1c5.9-4,12.6-5.7,19.5-6.7c3.7-0.5,7.5-0.8,11.6-1.2c-0.7-0.7-1.2-1.4-1.8-2c-4.4-3.8-9.7-5.6-15.3-6.3
		c-9.4-1.2-18.8-2.1-28.2,0.3c-0.3,0.1-0.7,0-1.4,0c2.9-8.5,10.4-11.4,17.6-15.2c-18.2-6.6-34.3-2-49.7,7.6
		c-7-10.1-14.4-19.6-25.2-25.9c-2-1.1-4.2-1.9-6.5-2.7c2.5,8.2,1.1,16.3,0.6,25c-8-8-17.4-12.2-27.8-14.4c-3.6-0.8-7.3-1-11-1.2
		c4.6,2.9,7.8,6.8,10.3,11.4c3,5.4,4.9,11.1,6.4,17.3c-3.2,0.2-6.2,0.3-9.3,0.6c-16.8,1.6-33.2,4.8-48.3,12.8
		c-5.7,3-10.7,6.9-14,12.6c-0.3,0.6-0.6,1.2-1.1,2.3c3.2-0.6,5.9-1.3,8.8-1.7c7.4-1,14.9-2.3,22.3-2.8c6.6-0.4,13.2,0.7,19.5,3
		c2.1,0.8,4.1,1.7,5.6,3.9c-0.8,0.4-1.4,0.8-2.1,1.1c-12.9,6.8-24.3,15.4-33.3,27c-3.4,4.5-6.2,9.3-7.7,14.8
		c-0.2,0.6-0.3,1.2-0.5,2.3c7.1-4.5,14.3-7.3,21.9-9.4c7.5-2.2,15.1-4,22.8-5.9c-8,12-15.3,24.2-16.8,38.9c1.2-0.5,1.9-1.3,2.5-2
		c7.1-8.2,14.6-16,23.9-21.7c5.5-3.4,11.3-5.8,17.9-6c0.8,0,1.6,0,2.5,0c-8.4,13.6-13.2,27.8-17,42.4c-4,15.5-6.7,31.3-8.6,47.2
		c-3.1,25.5-4.4,51.1-4.2,76.8c0,2.5,0.1,5,0.1,7.5c-0.8,0.5-1.4,0.6-2,0.6c-14.9,0-29.9,0-44.8,0c-1,0-2.1-0.3-2.9-0.7
		c-32.9-17.5-58.2-42.5-75.5-75.5c-10.6-20.2-17.1-41.7-20-64.3c-6.4-51.3,4.8-98.2,35.6-139.9c29.4-39.8,68.8-64.7,117.2-74.9
		c19.6-4.1,39.4-4.8,59.3-2.5c43.3,5,80.7,22.7,112.1,52.9c28.5,27.4,46.8,60.5,54.9,99.2c3.7,17.3,4.6,34.9,3.4,52.6
		c-1.8,26.5-8.5,51.7-20.6,75.3c-17,33.1-41.8,58.6-74,77.2c-0.7,0.4-1.6,0.6-2.4,0.6c-23.2,0-46.5,0-69.7,0c-0.9,0-1.8,0.1-1.8-1.3
		c0-7.8-0.2-15.6,1.5-23.2c1.2-5.5,3.9-10.3,7-14.9c2-2.9,3.6-6.1,5.4-9.1c0.3-0.6,0.5-1.3,0.7-1.9c-1.7,0.2-3.2,0.6-4.5,1.3
		c-5.5,3.1-9.8,7.7-13.8,12.5c-3.1,3.7-6,7.5-9,11.3c-0.4,0.5-0.8,1-1.5,1.9C326.5,456.6,326.7,452.3,327.4,448.1z"/>
	<path class="st1" d="M224.3,509.8v77.9h34.4c0,1.6,0.1,3.5,0,5.5c0,0.4-0.6,0.8-1,1c-0.4,0.2-0.9,0.1-1.3,0.1
		c-13.3,0-26.5,0-39.8,0c-2,0-2.5-0.6-2.4-2.5c0.1-26.5,0.1-53,0-79.5c0-2,0.5-2.6,2.5-2.5C219,510,221.5,509.8,224.3,509.8z
		 M157.3,576.7c0.8,1.2,1.3,2,1.8,2.7c2.8,4.5,6.1,8.4,11.2,10.5c11.5,4.6,23.4-2.7,24.9-15c0.8-7.2-1.8-12.5-8-15.9
		c-4-2.2-8.3-3.8-12.4-5.8c-2.6-1.2-5.2-2.5-7.7-3.9c-13.5-7.5-13.3-27.6-1-35.7c9.7-6.4,19.9-6.8,30.5-2.5c0.6,0.2,1.1,0.6,1.7,0.9
		c3.3,2,3.3,2,2,5.6c-0.6,1.8-1.3,3.6-1.9,5.5c-0.2,0.6-0.6,1.1-1.1,2.1c-0.5-1-0.8-1.6-1.2-2.2c-3.7-7-11.6-10.7-19-8.7
		c-5.3,1.4-9,4.8-10.3,10.2c-1.4,5.8-0.1,11.3,4.6,15c3.4,2.7,7.6,4.5,11.5,6.5c2.9,1.5,6,2.5,9,3.9c11.4,5.5,14.8,14.1,11.6,26.3
		c-2.7,10-9.7,15.8-19.4,18.4c-8.4,2.3-16.7,1.5-24.7-2.1c-0.9-0.4-1.8-0.9-2.7-1.5c-2.8-1.8-2.8-1.8-2-5c0.5-2.1,0.9-4.3,1.4-6.4
		C156.4,578.8,156.8,578,157.3,576.7z M145.2,595.1h-9.9c0-0.8-0.1-1.5-0.1-2.1c0-26.6,0-53.2-0.1-79.9c0-2,0.5-2.6,2.5-2.5
		c1.9,0.2,3.7,0.1,5.6,0c1.4-0.1,2.2,0.3,2,1.9c-0.1,0.6,0,1.3,0,1.9c0,26,0,52,0,77.9V595.1z"/>
	<path class="st2" d="M340.8,595.1c-4.4,0-8.4,0.1-12.3-0.1c-0.5,0-1.2-1-1.4-1.7c-3.7-9.5-7.5-19-11.1-28.5c-1-2.7-2.4-3.6-5.4-3.5
		c-8.2,0.2-16.5,0.1-24.7,0.1c-1.5,0-2.4,0.4-3,1.9c-3.7,10.1-7.5,20.2-11.3,30.3c-0.2,0.5-0.9,1.2-1.3,1.2c-2.1,0-4.3-0.2-6.5-0.4
		c1.1-2.5,2.3-5.2,3.4-7.9c11-25.4,22-50.8,32.9-76.2c0.5-1.2,1-2.1,2.6-2.1c1.6,0,1.9,1,2.3,2.1c11.6,27.5,23.3,55,34.9,82.5
		C340.2,593.4,340.4,594.1,340.8,595.1z M312.7,556.7c-4.4-10.4-8.7-20.5-13.3-31.2c-4.8,10.7-9.4,20.9-14,31.2H312.7z"/>
	<path class="st1" d="M357.2,595.1h-7.6c0-0.8-0.1-1.4-0.1-2.1c0-26.6,0-53.3-0.1-79.9c0-2.1,0.7-2.3,2.5-2.5
		c2.8-0.2,4.6,0.8,6.4,2.9c17.7,19.8,35.5,39.5,53.3,59.2c0.6,0.7,1.5,1.1,2.2,1.6c0.2-0.1,0.3-0.3,0.5-0.4v-63.2c2.4,0,4.6,0,6.8,0
		c0.3,0,0.8,0.6,0.9,1c0.2,0.7,0.1,1.4,0.1,2.1c0,26.1,0,52.3,0,78.4c0,1-0.3,2.6-0.8,2.8c-1.4,0.4-2.9,0.4-4.2-1
		c-11.9-13.3-24-26.4-35.8-39.7c-7.2-8.1-14-16.5-21-24.7c-0.6-0.6-1.4-1-2.2-1.5c-0.3,0.9-1,1.7-1,2.6c-0.1,20.5,0,41.1,0,61.6
		V595.1z"/>
	<path class="st3" d="M444.3,516.2v73.4c1.4,0,2.6,0,3.8,0c7.8-0.3,15.8,0.2,23.5-0.9c12.2-1.7,20.5-9,24.3-20.9
		c2.9-9.3,3-18.7,1.4-28.2c-1.1-6.7-3.6-12.6-9.1-16.9c-4.7-3.6-10.2-5.4-15.9-5.8c-9-0.6-18-0.6-27-0.8
		C444.9,516,444.7,516.1,444.3,516.2z M433.3,552c0-13.3,0-26.6,0-40c0-1.8,0.5-2.3,2.3-2.3c12.7,0.1,25.4,0,38,0.1
		c10.8,0.1,20.2,3.4,27.4,11.8c5,5.9,7.6,12.9,8.4,20.6c1.1,9.7,0.4,19.3-3.4,28.4c-5.1,12.5-14.9,19.4-27.7,22.1
		c-4.5,0.9-9.2,1.3-13.8,1.4c-9.6,0.2-19.3,0-29,0.1c-1.8,0-2.3-0.5-2.3-2.3C433.3,578.7,433.3,565.4,433.3,552z"/>
	<path class="st1" d="M444.3,516.2v73.4c1.4,0,2.6,0,3.8,0c7.8-0.3,15.8,0.2,23.5-0.9c12.2-1.7,20.5-9,24.3-20.9
		c2.9-9.3,3-18.7,1.4-28.2c-1.1-6.7-3.6-12.6-9.1-16.9c-4.7-3.6-10.2-5.4-15.9-5.8c-9-0.6-18-0.6-27-0.8
		C444.9,516,444.7,516.1,444.3,516.2z M433.3,552c0-13.3,0-26.6,0-40c0-1.8,0.5-2.3,2.3-2.3c12.7,0.1,25.4,0,38,0.1
		c10.8,0.1,20.2,3.4,27.4,11.8c5,5.9,7.6,12.9,8.4,20.6c1.1,9.7,0.4,19.3-3.4,28.4c-5.1,12.5-14.9,19.4-27.7,22.1
		c-4.5,0.9-9.2,1.3-13.8,1.4c-9.6,0.2-19.3,0-29,0.1c-1.8,0-2.3-0.5-2.3-2.3C433.3,578.7,433.3,565.4,433.3,552z"/>
	<path class="st0" d="M504.1,481.6c0.5,1.5,0.9,2.8,1.4,4c-1.5,0.6-2.2,0.2-2.5-1.2c-0.2-1.4-1-2-2.2-1.8c-1.2,0.8,0.6,3.6-2.4,3.2
		c0-2.5,0-4.9,0-7.2c0-0.3,0.2-0.8,0.3-0.8c2,0.1,4.2-0.1,5.9,0.7C505.9,479.1,505.1,480.8,504.1,481.6 M500.3,480.9
		c0.2,0.2,0.3,0.4,0.5,0.6c0.8-0.5,1.5-0.9,2.3-1.4c-0.6-0.4-1.1-1.2-1.8-1.2C499.7,478.8,500.4,480.1,500.3,480.9 M501.8,473.1
		c4.7,0,8.5,3.5,8.5,8.1c0.1,4.7-3.6,8.4-8.4,8.5c-4.8,0-8.5-3.6-8.6-8.3C493.4,476.8,497.1,473.1,501.8,473.1 M508.2,481.4
		c0-3.7-2.7-6.6-6.3-6.6c-3.7,0-6.6,2.8-6.6,6.6c0,3.6,2.8,6.5,6.4,6.6C505.4,487.9,508.2,485.1,508.2,481.4"/>
</g>
</svg>
